<mxfile host="app.diagrams.net" modified="2023-07-06T16:07:39.519Z" agent="Mozilla/5.0 (Windows NT 10.0; Win64; x64) AppleWebKit/537.36 (KHTML, like Gecko) Chrome/109.0.0.0 Safari/537.36" etag="kHZbHcM0EJoA-4ah3hc5" version="21.6.1" type="device">
  <diagram name="Page-1" id="2a216829-ef6e-dabb-86c1-c78162f3ba2b">
    <mxGraphModel dx="1793" dy="995" grid="1" gridSize="10" guides="1" tooltips="1" connect="1" arrows="1" fold="1" page="1" pageScale="1" pageWidth="850" pageHeight="1100" background="none" math="0" shadow="0">
      <root>
        <mxCell id="0" />
        <mxCell id="1" parent="0" />
        <mxCell id="D5V9Ya8m6qbn9tGRQEsH-2" value="Product-манаджер" style="swimlane;startSize=20;horizontal=0;html=1;whiteSpace=wrap;" parent="1" vertex="1">
          <mxGeometry y="50" width="1700" height="550" as="geometry" />
        </mxCell>
        <mxCell id="D5V9Ya8m6qbn9tGRQEsH-13" style="edgeStyle=orthogonalEdgeStyle;rounded=0;orthogonalLoop=1;jettySize=auto;html=1;entryX=0;entryY=0.5;entryDx=0;entryDy=0;entryPerimeter=0;" parent="D5V9Ya8m6qbn9tGRQEsH-2" source="D5V9Ya8m6qbn9tGRQEsH-8" target="D5V9Ya8m6qbn9tGRQEsH-12" edge="1">
          <mxGeometry relative="1" as="geometry" />
        </mxCell>
        <mxCell id="D5V9Ya8m6qbn9tGRQEsH-8" value="" style="shape=mxgraph.bpmn.shape;html=1;verticalLabelPosition=bottom;labelBackgroundColor=#ffffff;verticalAlign=top;perimeter=ellipsePerimeter;outline=standard;symbol=general;" parent="D5V9Ya8m6qbn9tGRQEsH-2" vertex="1">
          <mxGeometry x="40" y="150" width="50" height="50" as="geometry" />
        </mxCell>
        <mxCell id="D5V9Ya8m6qbn9tGRQEsH-12" value="&lt;font style=&quot;font-size: 14px;&quot;&gt;планирование релиза&lt;br&gt;определение целей и функций&lt;br&gt;&lt;/font&gt;" style="points=[[0.25,0,0],[0.5,0,0],[0.75,0,0],[1,0.25,0],[1,0.5,0],[1,0.75,0],[0.75,1,0],[0.5,1,0],[0.25,1,0],[0,0.75,0],[0,0.5,0],[0,0.25,0]];shape=mxgraph.bpmn.task;whiteSpace=wrap;rectStyle=rounded;size=10;html=1;container=1;expand=0;collapsible=0;taskMarker=abstract;isLoopStandard=1;isLoopSub=1;" parent="D5V9Ya8m6qbn9tGRQEsH-2" vertex="1">
          <mxGeometry x="140" y="127.5" width="150" height="95" as="geometry" />
        </mxCell>
        <mxCell id="6UxTQZFYeAmYfns-SoIN-3" style="edgeStyle=orthogonalEdgeStyle;rounded=0;orthogonalLoop=1;jettySize=auto;html=1;entryX=0.5;entryY=1;entryDx=0;entryDy=0;entryPerimeter=0;dashed=1;" edge="1" parent="D5V9Ya8m6qbn9tGRQEsH-2" source="6UxTQZFYeAmYfns-SoIN-1" target="D5V9Ya8m6qbn9tGRQEsH-12">
          <mxGeometry relative="1" as="geometry" />
        </mxCell>
        <mxCell id="6UxTQZFYeAmYfns-SoIN-1" value="&lt;font style=&quot;font-size: 14px;&quot;&gt;График и бюджет&lt;/font&gt;" style="shape=mxgraph.bpmn.data;labelPosition=center;verticalLabelPosition=bottom;align=center;verticalAlign=top;size=15;html=1;" vertex="1" parent="D5V9Ya8m6qbn9tGRQEsH-2">
          <mxGeometry x="180" y="280" width="70" height="100" as="geometry" />
        </mxCell>
        <mxCell id="6UxTQZFYeAmYfns-SoIN-21" style="edgeStyle=orthogonalEdgeStyle;rounded=0;orthogonalLoop=1;jettySize=auto;html=1;entryX=0;entryY=0.5;entryDx=0;entryDy=0;entryPerimeter=0;" edge="1" parent="D5V9Ya8m6qbn9tGRQEsH-2" source="6UxTQZFYeAmYfns-SoIN-18" target="6UxTQZFYeAmYfns-SoIN-20">
          <mxGeometry relative="1" as="geometry" />
        </mxCell>
        <mxCell id="6UxTQZFYeAmYfns-SoIN-18" value="&lt;span style=&quot;font-size: 14px;&quot;&gt;Подготовка к запуску&lt;/span&gt;" style="points=[[0.25,0,0],[0.5,0,0],[0.75,0,0],[1,0.25,0],[1,0.5,0],[1,0.75,0],[0.75,1,0],[0.5,1,0],[0.25,1,0],[0,0.75,0],[0,0.5,0],[0,0.25,0]];shape=mxgraph.bpmn.task;whiteSpace=wrap;rectStyle=rounded;size=10;html=1;container=1;expand=0;collapsible=0;taskMarker=abstract;isLoopStandard=1;isLoopSub=1;" vertex="1" parent="D5V9Ya8m6qbn9tGRQEsH-2">
          <mxGeometry x="610" y="127.5" width="150" height="95" as="geometry" />
        </mxCell>
        <mxCell id="6UxTQZFYeAmYfns-SoIN-25" style="edgeStyle=orthogonalEdgeStyle;rounded=0;orthogonalLoop=1;jettySize=auto;html=1;entryX=-0.02;entryY=0.368;entryDx=0;entryDy=0;entryPerimeter=0;" edge="1" parent="D5V9Ya8m6qbn9tGRQEsH-2" source="6UxTQZFYeAmYfns-SoIN-20" target="6UxTQZFYeAmYfns-SoIN-22">
          <mxGeometry relative="1" as="geometry">
            <Array as="points">
              <mxPoint x="895" y="45" />
            </Array>
          </mxGeometry>
        </mxCell>
        <mxCell id="6UxTQZFYeAmYfns-SoIN-26" style="edgeStyle=orthogonalEdgeStyle;rounded=0;orthogonalLoop=1;jettySize=auto;html=1;entryX=0;entryY=0.5;entryDx=0;entryDy=0;entryPerimeter=0;" edge="1" parent="D5V9Ya8m6qbn9tGRQEsH-2" source="6UxTQZFYeAmYfns-SoIN-20" target="6UxTQZFYeAmYfns-SoIN-23">
          <mxGeometry relative="1" as="geometry" />
        </mxCell>
        <mxCell id="6UxTQZFYeAmYfns-SoIN-27" style="edgeStyle=orthogonalEdgeStyle;rounded=0;orthogonalLoop=1;jettySize=auto;html=1;entryX=-0.003;entryY=0.632;entryDx=0;entryDy=0;entryPerimeter=0;" edge="1" parent="D5V9Ya8m6qbn9tGRQEsH-2" source="6UxTQZFYeAmYfns-SoIN-20" target="6UxTQZFYeAmYfns-SoIN-24">
          <mxGeometry relative="1" as="geometry">
            <Array as="points">
              <mxPoint x="895" y="310" />
            </Array>
          </mxGeometry>
        </mxCell>
        <mxCell id="6UxTQZFYeAmYfns-SoIN-20" value="" style="points=[[0.25,0.25,0],[0.5,0,0],[0.75,0.25,0],[1,0.5,0],[0.75,0.75,0],[0.5,1,0],[0.25,0.75,0],[0,0.5,0]];shape=mxgraph.bpmn.gateway2;html=1;verticalLabelPosition=bottom;labelBackgroundColor=#ffffff;verticalAlign=top;align=center;perimeter=rhombusPerimeter;outlineConnect=0;outline=none;symbol=none;gwType=parallel;" vertex="1" parent="D5V9Ya8m6qbn9tGRQEsH-2">
          <mxGeometry x="840" y="125" width="110" height="100" as="geometry" />
        </mxCell>
        <mxCell id="6UxTQZFYeAmYfns-SoIN-29" style="edgeStyle=orthogonalEdgeStyle;rounded=0;orthogonalLoop=1;jettySize=auto;html=1;" edge="1" parent="D5V9Ya8m6qbn9tGRQEsH-2" source="6UxTQZFYeAmYfns-SoIN-22" target="6UxTQZFYeAmYfns-SoIN-28">
          <mxGeometry relative="1" as="geometry">
            <mxPoint x="1280" y="120" as="targetPoint" />
          </mxGeometry>
        </mxCell>
        <mxCell id="6UxTQZFYeAmYfns-SoIN-22" value="&lt;span style=&quot;font-size: 14px;&quot;&gt;Подготовка инфраструктуры&lt;/span&gt;" style="points=[[0.25,0,0],[0.5,0,0],[0.75,0,0],[1,0.25,0],[1,0.5,0],[1,0.75,0],[0.75,1,0],[0.5,1,0],[0.25,1,0],[0,0.75,0],[0,0.5,0],[0,0.25,0]];shape=mxgraph.bpmn.task;whiteSpace=wrap;rectStyle=rounded;size=10;html=1;container=1;expand=0;collapsible=0;taskMarker=abstract;isLoopStandard=1;isLoopSub=1;" vertex="1" parent="D5V9Ya8m6qbn9tGRQEsH-2">
          <mxGeometry x="1010" y="10" width="150" height="95" as="geometry" />
        </mxCell>
        <mxCell id="6UxTQZFYeAmYfns-SoIN-30" style="edgeStyle=orthogonalEdgeStyle;rounded=0;orthogonalLoop=1;jettySize=auto;html=1;" edge="1" parent="D5V9Ya8m6qbn9tGRQEsH-2" source="6UxTQZFYeAmYfns-SoIN-23" target="6UxTQZFYeAmYfns-SoIN-28">
          <mxGeometry relative="1" as="geometry" />
        </mxCell>
        <mxCell id="6UxTQZFYeAmYfns-SoIN-23" value="&lt;span style=&quot;font-size: 14px;&quot;&gt;Планирование ресурсов&lt;/span&gt;" style="points=[[0.25,0,0],[0.5,0,0],[0.75,0,0],[1,0.25,0],[1,0.5,0],[1,0.75,0],[0.75,1,0],[0.5,1,0],[0.25,1,0],[0,0.75,0],[0,0.5,0],[0,0.25,0]];shape=mxgraph.bpmn.task;whiteSpace=wrap;rectStyle=rounded;size=10;html=1;container=1;expand=0;collapsible=0;taskMarker=abstract;isLoopStandard=1;isLoopSub=1;" vertex="1" parent="D5V9Ya8m6qbn9tGRQEsH-2">
          <mxGeometry x="1010" y="127.5" width="150" height="95" as="geometry" />
        </mxCell>
        <mxCell id="6UxTQZFYeAmYfns-SoIN-31" style="edgeStyle=orthogonalEdgeStyle;rounded=0;orthogonalLoop=1;jettySize=auto;html=1;" edge="1" parent="D5V9Ya8m6qbn9tGRQEsH-2" source="6UxTQZFYeAmYfns-SoIN-24" target="6UxTQZFYeAmYfns-SoIN-28">
          <mxGeometry relative="1" as="geometry" />
        </mxCell>
        <mxCell id="6UxTQZFYeAmYfns-SoIN-24" value="&lt;span style=&quot;font-size: 14px;&quot;&gt;Подготовка&lt;br&gt;персонала&lt;/span&gt;" style="points=[[0.25,0,0],[0.5,0,0],[0.75,0,0],[1,0.25,0],[1,0.5,0],[1,0.75,0],[0.75,1,0],[0.5,1,0],[0.25,1,0],[0,0.75,0],[0,0.5,0],[0,0.25,0]];shape=mxgraph.bpmn.task;whiteSpace=wrap;rectStyle=rounded;size=10;html=1;container=1;expand=0;collapsible=0;taskMarker=abstract;isLoopStandard=1;isLoopSub=1;" vertex="1" parent="D5V9Ya8m6qbn9tGRQEsH-2">
          <mxGeometry x="1010" y="250" width="150" height="95" as="geometry" />
        </mxCell>
        <mxCell id="6UxTQZFYeAmYfns-SoIN-38" style="edgeStyle=orthogonalEdgeStyle;rounded=0;orthogonalLoop=1;jettySize=auto;html=1;entryX=0;entryY=0.5;entryDx=0;entryDy=0;entryPerimeter=0;" edge="1" parent="D5V9Ya8m6qbn9tGRQEsH-2" source="6UxTQZFYeAmYfns-SoIN-28" target="6UxTQZFYeAmYfns-SoIN-37">
          <mxGeometry relative="1" as="geometry" />
        </mxCell>
        <mxCell id="6UxTQZFYeAmYfns-SoIN-28" value="" style="points=[[0.25,0.25,0],[0.5,0,0],[0.75,0.25,0],[1,0.5,0],[0.75,0.75,0],[0.5,1,0],[0.25,0.75,0],[0,0.5,0]];shape=mxgraph.bpmn.gateway2;html=1;verticalLabelPosition=bottom;labelBackgroundColor=#ffffff;verticalAlign=top;align=center;perimeter=rhombusPerimeter;outlineConnect=0;outline=none;symbol=none;gwType=parallel;" vertex="1" parent="D5V9Ya8m6qbn9tGRQEsH-2">
          <mxGeometry x="1230" y="125" width="110" height="100" as="geometry" />
        </mxCell>
        <mxCell id="6UxTQZFYeAmYfns-SoIN-37" value="&lt;span style=&quot;font-size: 14px;&quot;&gt;Запуск&lt;/span&gt;" style="points=[[0.25,0,0],[0.5,0,0],[0.75,0,0],[1,0.25,0],[1,0.5,0],[1,0.75,0],[0.75,1,0],[0.5,1,0],[0.25,1,0],[0,0.75,0],[0,0.5,0],[0,0.25,0]];shape=mxgraph.bpmn.task;whiteSpace=wrap;rectStyle=rounded;size=10;html=1;container=1;expand=0;collapsible=0;taskMarker=abstract;isLoopStandard=1;isLoopSub=1;" vertex="1" parent="D5V9Ya8m6qbn9tGRQEsH-2">
          <mxGeometry x="1390" y="127.5" width="150" height="95" as="geometry" />
        </mxCell>
        <mxCell id="D5V9Ya8m6qbn9tGRQEsH-3" value="Разработчик" style="swimlane;startSize=20;horizontal=0;html=1;whiteSpace=wrap;" parent="1" vertex="1">
          <mxGeometry y="600" width="1700" height="560" as="geometry" />
        </mxCell>
        <mxCell id="D5V9Ya8m6qbn9tGRQEsH-14" value="&lt;span style=&quot;font-size: 14px;&quot;&gt;&amp;nbsp;Разработка и отладка&lt;/span&gt;" style="points=[[0.25,0,0],[0.5,0,0],[0.75,0,0],[1,0.25,0],[1,0.5,0],[1,0.75,0],[0.75,1,0],[0.5,1,0],[0.25,1,0],[0,0.75,0],[0,0.5,0],[0,0.25,0]];shape=mxgraph.bpmn.task;whiteSpace=wrap;rectStyle=rounded;size=10;html=1;container=1;expand=0;collapsible=0;taskMarker=abstract;isLoopStandard=1;isLoopSub=1;" parent="D5V9Ya8m6qbn9tGRQEsH-3" vertex="1">
          <mxGeometry x="360" y="130" width="150" height="95" as="geometry" />
        </mxCell>
        <mxCell id="6UxTQZFYeAmYfns-SoIN-8" value="&lt;span style=&quot;font-size: 14px;&quot;&gt;Создание установочного пакета&lt;/span&gt;" style="points=[[0.25,0,0],[0.5,0,0],[0.75,0,0],[1,0.25,0],[1,0.5,0],[1,0.75,0],[0.75,1,0],[0.5,1,0],[0.25,1,0],[0,0.75,0],[0,0.5,0],[0,0.25,0]];shape=mxgraph.bpmn.task;whiteSpace=wrap;rectStyle=rounded;size=10;html=1;container=1;expand=0;collapsible=0;taskMarker=abstract;isLoopStandard=1;isLoopSub=1;" vertex="1" parent="D5V9Ya8m6qbn9tGRQEsH-3">
          <mxGeometry x="610" y="130" width="150" height="95" as="geometry" />
        </mxCell>
        <mxCell id="6UxTQZFYeAmYfns-SoIN-16" value="&lt;font style=&quot;font-size: 14px;&quot;&gt;Руководство пользователя&lt;/font&gt;" style="shape=mxgraph.bpmn.data;labelPosition=center;verticalLabelPosition=bottom;align=center;verticalAlign=top;size=15;html=1;" vertex="1" parent="D5V9Ya8m6qbn9tGRQEsH-3">
          <mxGeometry x="1050" y="30" width="70" height="100" as="geometry" />
        </mxCell>
        <mxCell id="6UxTQZFYeAmYfns-SoIN-17" style="edgeStyle=orthogonalEdgeStyle;rounded=0;orthogonalLoop=1;jettySize=auto;html=1;entryX=1;entryY=0.5;entryDx=0;entryDy=0;entryPerimeter=0;dashed=1;startArrow=classicThin;startFill=1;endArrow=none;endFill=0;" edge="1" parent="D5V9Ya8m6qbn9tGRQEsH-3" source="6UxTQZFYeAmYfns-SoIN-16" target="6UxTQZFYeAmYfns-SoIN-8">
          <mxGeometry relative="1" as="geometry">
            <Array as="points">
              <mxPoint x="1090" y="178" />
            </Array>
          </mxGeometry>
        </mxCell>
        <mxCell id="D5V9Ya8m6qbn9tGRQEsH-4" value="Тестировщик" style="swimlane;startSize=20;horizontal=0;html=1;whiteSpace=wrap;" parent="1" vertex="1">
          <mxGeometry y="1160" width="1700" height="520" as="geometry" />
        </mxCell>
        <mxCell id="6UxTQZFYeAmYfns-SoIN-5" style="edgeStyle=orthogonalEdgeStyle;rounded=0;orthogonalLoop=1;jettySize=auto;html=1;entryX=0.5;entryY=0;entryDx=0;entryDy=0;entryPerimeter=0;" edge="1" parent="D5V9Ya8m6qbn9tGRQEsH-4" source="D5V9Ya8m6qbn9tGRQEsH-16" target="6UxTQZFYeAmYfns-SoIN-4">
          <mxGeometry relative="1" as="geometry" />
        </mxCell>
        <mxCell id="D5V9Ya8m6qbn9tGRQEsH-16" value="&lt;font style=&quot;font-size: 14px;&quot;&gt;Тестирование программы&lt;/font&gt;" style="points=[[0.25,0,0],[0.5,0,0],[0.75,0,0],[1,0.25,0],[1,0.5,0],[1,0.75,0],[0.75,1,0],[0.5,1,0],[0.25,1,0],[0,0.75,0],[0,0.5,0],[0,0.25,0]];shape=mxgraph.bpmn.task;whiteSpace=wrap;rectStyle=rounded;size=10;html=1;container=1;expand=0;collapsible=0;taskMarker=abstract;isLoopStandard=1;isLoopSub=1;" parent="D5V9Ya8m6qbn9tGRQEsH-4" vertex="1">
          <mxGeometry x="360" y="70" width="150" height="95" as="geometry" />
        </mxCell>
        <mxCell id="6UxTQZFYeAmYfns-SoIN-4" value="" style="points=[[0.25,0.25,0],[0.5,0,0],[0.75,0.25,0],[1,0.5,0],[0.75,0.75,0],[0.5,1,0],[0.25,0.75,0],[0,0.5,0]];shape=mxgraph.bpmn.gateway2;html=1;verticalLabelPosition=bottom;labelBackgroundColor=#ffffff;verticalAlign=top;align=center;perimeter=rhombusPerimeter;outlineConnect=0;outline=none;symbol=none;gwType=exclusive;" vertex="1" parent="D5V9Ya8m6qbn9tGRQEsH-4">
          <mxGeometry x="375" y="240" width="120" height="105" as="geometry" />
        </mxCell>
        <mxCell id="D5V9Ya8m6qbn9tGRQEsH-6" value="Поддержка" style="swimlane;startSize=20;horizontal=0;html=1;whiteSpace=wrap;" parent="1" vertex="1">
          <mxGeometry y="1680" width="1700" height="520" as="geometry" />
        </mxCell>
        <mxCell id="6UxTQZFYeAmYfns-SoIN-34" value="&lt;font style=&quot;font-size: 14px;&quot;&gt;Поддержка программы&lt;/font&gt;" style="points=[[0.25,0,0],[0.5,0,0],[0.75,0,0],[1,0.25,0],[1,0.5,0],[1,0.75,0],[0.75,1,0],[0.5,1,0],[0.25,1,0],[0,0.75,0],[0,0.5,0],[0,0.25,0]];shape=mxgraph.bpmn.task;whiteSpace=wrap;rectStyle=rounded;size=10;html=1;container=1;expand=0;collapsible=0;taskMarker=abstract;isLoopStandard=1;isLoopSub=1;" vertex="1" parent="D5V9Ya8m6qbn9tGRQEsH-6">
          <mxGeometry x="1390" y="212.5" width="150" height="95" as="geometry" />
        </mxCell>
        <mxCell id="D5V9Ya8m6qbn9tGRQEsH-9" value="" style="shape=mxgraph.bpmn.shape;html=1;verticalLabelPosition=bottom;labelBackgroundColor=#ffffff;verticalAlign=top;perimeter=ellipsePerimeter;outline=end;symbol=general;" parent="D5V9Ya8m6qbn9tGRQEsH-6" vertex="1">
          <mxGeometry x="1610" y="235" width="50" height="50" as="geometry" />
        </mxCell>
        <mxCell id="6UxTQZFYeAmYfns-SoIN-36" style="edgeStyle=orthogonalEdgeStyle;rounded=0;orthogonalLoop=1;jettySize=auto;html=1;" edge="1" parent="D5V9Ya8m6qbn9tGRQEsH-6" source="6UxTQZFYeAmYfns-SoIN-34" target="D5V9Ya8m6qbn9tGRQEsH-9">
          <mxGeometry relative="1" as="geometry" />
        </mxCell>
        <mxCell id="D5V9Ya8m6qbn9tGRQEsH-10" value="" style="swimlane;html=1;startSize=20;fontStyle=0;collapsible=0;horizontal=1;swimlaneLine=0;fillColor=none;whiteSpace=wrap;" parent="1" vertex="1">
          <mxGeometry width="1700" height="50" as="geometry" />
        </mxCell>
        <mxCell id="D5V9Ya8m6qbn9tGRQEsH-11" value="&lt;span style=&quot;font-size: 24px;&quot;&gt;Релиз программного продукта&lt;/span&gt;" style="text;html=1;align=center;verticalAlign=middle;resizable=0;points=[];autosize=1;strokeColor=none;fillColor=none;" parent="D5V9Ya8m6qbn9tGRQEsH-10" vertex="1">
          <mxGeometry x="670" y="5" width="360" height="40" as="geometry" />
        </mxCell>
        <mxCell id="D5V9Ya8m6qbn9tGRQEsH-15" style="edgeStyle=orthogonalEdgeStyle;rounded=0;orthogonalLoop=1;jettySize=auto;html=1;entryX=0.5;entryY=0;entryDx=0;entryDy=0;entryPerimeter=0;" parent="1" source="D5V9Ya8m6qbn9tGRQEsH-12" target="D5V9Ya8m6qbn9tGRQEsH-14" edge="1">
          <mxGeometry relative="1" as="geometry">
            <mxPoint x="340" y="600" as="targetPoint" />
          </mxGeometry>
        </mxCell>
        <mxCell id="D5V9Ya8m6qbn9tGRQEsH-17" style="edgeStyle=orthogonalEdgeStyle;rounded=0;orthogonalLoop=1;jettySize=auto;html=1;" parent="1" source="D5V9Ya8m6qbn9tGRQEsH-14" edge="1" target="D5V9Ya8m6qbn9tGRQEsH-16">
          <mxGeometry relative="1" as="geometry">
            <mxPoint x="435" y="980" as="targetPoint" />
          </mxGeometry>
        </mxCell>
        <mxCell id="6UxTQZFYeAmYfns-SoIN-6" style="edgeStyle=orthogonalEdgeStyle;rounded=0;orthogonalLoop=1;jettySize=auto;html=1;" edge="1" parent="1" source="6UxTQZFYeAmYfns-SoIN-4" target="D5V9Ya8m6qbn9tGRQEsH-14">
          <mxGeometry relative="1" as="geometry">
            <mxPoint x="190" y="660" as="targetPoint" />
            <Array as="points">
              <mxPoint x="140" y="1452.5" />
              <mxPoint x="140" y="777.5" />
            </Array>
          </mxGeometry>
        </mxCell>
        <mxCell id="6UxTQZFYeAmYfns-SoIN-7" value="&lt;font style=&quot;font-size: 14px;&quot;&gt;Найдены ошибки&lt;/font&gt;" style="edgeLabel;html=1;align=center;verticalAlign=middle;resizable=0;points=[];" vertex="1" connectable="0" parent="6UxTQZFYeAmYfns-SoIN-6">
          <mxGeometry x="-0.8066" y="-1" relative="1" as="geometry">
            <mxPoint x="-1" as="offset" />
          </mxGeometry>
        </mxCell>
        <mxCell id="6UxTQZFYeAmYfns-SoIN-14" style="edgeStyle=orthogonalEdgeStyle;rounded=0;orthogonalLoop=1;jettySize=auto;html=1;" edge="1" parent="1" source="6UxTQZFYeAmYfns-SoIN-4" target="6UxTQZFYeAmYfns-SoIN-8">
          <mxGeometry relative="1" as="geometry" />
        </mxCell>
        <mxCell id="6UxTQZFYeAmYfns-SoIN-15" value="&lt;font style=&quot;font-size: 14px;&quot;&gt;Ошибок не выявленно&lt;/font&gt;" style="edgeLabel;html=1;align=center;verticalAlign=middle;resizable=0;points=[];" vertex="1" connectable="0" parent="6UxTQZFYeAmYfns-SoIN-14">
          <mxGeometry x="-0.7657" y="-1" relative="1" as="geometry">
            <mxPoint x="-1" as="offset" />
          </mxGeometry>
        </mxCell>
        <mxCell id="6UxTQZFYeAmYfns-SoIN-19" style="edgeStyle=orthogonalEdgeStyle;rounded=0;orthogonalLoop=1;jettySize=auto;html=1;entryX=0.5;entryY=1;entryDx=0;entryDy=0;entryPerimeter=0;" edge="1" parent="1" source="6UxTQZFYeAmYfns-SoIN-8" target="6UxTQZFYeAmYfns-SoIN-18">
          <mxGeometry relative="1" as="geometry" />
        </mxCell>
        <mxCell id="6UxTQZFYeAmYfns-SoIN-33" style="edgeStyle=orthogonalEdgeStyle;rounded=0;orthogonalLoop=1;jettySize=auto;html=1;entryX=0.5;entryY=1;entryDx=0;entryDy=0;entryPerimeter=0;dashed=1;" edge="1" parent="1" source="6UxTQZFYeAmYfns-SoIN-16" target="6UxTQZFYeAmYfns-SoIN-24">
          <mxGeometry relative="1" as="geometry" />
        </mxCell>
        <mxCell id="6UxTQZFYeAmYfns-SoIN-39" style="edgeStyle=orthogonalEdgeStyle;rounded=0;orthogonalLoop=1;jettySize=auto;html=1;" edge="1" parent="1" source="6UxTQZFYeAmYfns-SoIN-37" target="6UxTQZFYeAmYfns-SoIN-34">
          <mxGeometry relative="1" as="geometry" />
        </mxCell>
      </root>
    </mxGraphModel>
  </diagram>
</mxfile>
